<mxfile host="Electron" modified="2024-03-18T20:23:54.135Z" agent="Mozilla/5.0 (Windows NT 10.0; Win64; x64) AppleWebKit/537.36 (KHTML, like Gecko) draw.io/23.1.5 Chrome/120.0.6099.109 Electron/28.1.0 Safari/537.36" etag="45HUwgh5U5uUhJCwtmq2" version="23.1.5" type="device">
  <diagram name="Seite-1" id="mLTvoJqHk50UhOe_mAzs">
    <mxGraphModel dx="2266" dy="917" grid="1" gridSize="10" guides="1" tooltips="1" connect="1" arrows="1" fold="1" page="1" pageScale="1" pageWidth="1169" pageHeight="827" math="0" shadow="0">
      <root>
        <mxCell id="0" />
        <mxCell id="1" parent="0" />
        <mxCell id="vUYO0B9p0C9WrzdIXWTz-6" value="" style="strokeWidth=2;shadow=0;dashed=0;align=center;html=1;shape=mxgraph.mockup.text.callout;linkText=;textSize=17;textColor=#666666;callDir=NW;callStyle=line;fontSize=25;fontColor=#10739E;align=left;verticalAlign=top;strokeColor=#000000;fillColor=#4D9900;flipV=0;fontStyle=1;spacingLeft=0;spacingBottom=0;spacingTop=-10;" parent="1" vertex="1">
          <mxGeometry x="460" y="80" width="260" height="220" as="geometry" />
        </mxCell>
        <mxCell id="vUYO0B9p0C9WrzdIXWTz-7" value="" style="strokeWidth=2;shadow=0;dashed=0;align=center;html=1;shape=mxgraph.mockup.text.callout;linkText=;textSize=17;textColor=#666666;callDir=NW;callStyle=line;fontSize=25;fontColor=#F2931E;align=left;verticalAlign=top;strokeColor=#000000;fillColor=#4D9900;flipV=0;fontStyle=1;spacingLeft=0;spacingTop=-10;" parent="1" vertex="1">
          <mxGeometry x="460" y="240" width="260" height="110" as="geometry" />
        </mxCell>
        <mxCell id="vUYO0B9p0C9WrzdIXWTz-8" value="" style="strokeWidth=2;shadow=0;dashed=0;align=center;html=1;shape=mxgraph.mockup.text.callout;linkText=;textSize=17;textColor=#666666;callDir=NW;callStyle=line;fontSize=25;fontColor=#AE4132;align=left;verticalAlign=top;strokeColor=#000000;fillColor=#4D9900;flipV=0;fontStyle=1;spacingLeft=0;labelPosition=center;verticalLabelPosition=middle;spacingTop=-50;" parent="1" vertex="1">
          <mxGeometry x="460" y="390" width="260" height="20" as="geometry" />
        </mxCell>
        <mxCell id="vUYO0B9p0C9WrzdIXWTz-9" value="" style="strokeWidth=2;shadow=0;dashed=0;align=right;html=1;shape=mxgraph.mockup.text.callout;linkText=;textSize=17;textColor=#666666;callDir=SW;callStyle=line;fontSize=25;fontColor=#23445D;align=left;verticalAlign=bottom;strokeColor=#000000;fillColor=#4D9900;flipV=0;fontStyle=1;spacingLeft=0;" parent="1" vertex="1">
          <mxGeometry x="460" y="460" width="260" height="140" as="geometry" />
        </mxCell>
        <mxCell id="vUYO0B9p0C9WrzdIXWTz-10" value="" style="strokeWidth=2;shadow=0;dashed=0;align=center;html=1;shape=mxgraph.mockup.text.callout;linkText=;textSize=17;textColor=#666666;callDir=SW;callStyle=line;fontSize=25;fontColor=#12AAB5;align=left;verticalAlign=bottom;strokeColor=#000000;fillColor=#4D9900;flipV=0;fontStyle=1;spacingLeft=0;labelPosition=center;verticalLabelPosition=middle;" parent="1" vertex="1">
          <mxGeometry x="460" y="510" width="260" height="230" as="geometry" />
        </mxCell>
        <mxCell id="vUYO0B9p0C9WrzdIXWTz-1" value="" style="verticalLabelPosition=middle;verticalAlign=middle;html=1;shape=mxgraph.infographic.cylinder;fillColor=#FEC306;strokeColor=none;shadow=0;align=left;labelPosition=right;spacingLeft=10;fontStyle=1;fontColor=#12AAB5;" parent="1" vertex="1">
          <mxGeometry x="750" y="484.6976744186046" width="188.3710843373494" height="47.093023255813954" as="geometry" />
        </mxCell>
        <mxCell id="vUYO0B9p0C9WrzdIXWTz-2" value="" style="verticalLabelPosition=middle;verticalAlign=middle;html=1;shape=mxgraph.infographic.cylinder;fillColor=#838383;strokeColor=none;shadow=0;align=left;labelPosition=right;spacingLeft=10;fontStyle=1;fontColor=#23445D;" parent="1" vertex="1">
          <mxGeometry x="750" y="431.6046511627907" width="188.3710843373494" height="47.093023255813954" as="geometry" />
        </mxCell>
        <mxCell id="vUYO0B9p0C9WrzdIXWTz-3" value="" style="verticalLabelPosition=middle;verticalAlign=middle;html=1;shape=mxgraph.infographic.cylinder;fillColor=#F69200;strokeColor=none;shadow=0;align=left;labelPosition=right;spacingLeft=10;fontStyle=1;fontColor=#AE4132;" parent="1" vertex="1">
          <mxGeometry x="750" y="379.6046511627907" width="188.3710843373494" height="47.093023255813954" as="geometry" />
        </mxCell>
        <mxCell id="vUYO0B9p0C9WrzdIXWTz-4" value="" style="verticalLabelPosition=middle;verticalAlign=middle;html=1;shape=mxgraph.infographic.cylinder;fillColor=#A6B727;strokeColor=none;shadow=0;align=left;labelPosition=right;spacingLeft=10;fontStyle=1;fontColor=#F2931E;" parent="1" vertex="1">
          <mxGeometry x="750" y="326.6046511627907" width="188.3710843373494" height="47.093023255813954" as="geometry" />
        </mxCell>
        <mxCell id="vUYO0B9p0C9WrzdIXWTz-5" value="" style="verticalLabelPosition=middle;verticalAlign=middle;html=1;shape=mxgraph.infographic.cylinder;fillColor=#418AB3;strokeColor=none;shadow=0;align=left;labelPosition=right;spacingLeft=10;fontStyle=1;fontColor=#10739E;" parent="1" vertex="1">
          <mxGeometry x="750" y="274" width="188.3710843373494" height="47.093023255813954" as="geometry" />
        </mxCell>
        <mxCell id="vUYO0B9p0C9WrzdIXWTz-36" value="Translation&lt;br style=&quot;font-size: 30px;&quot;&gt;Request" style="verticalLabelPosition=bottom;verticalAlign=top;html=1;shape=mxgraph.infographic.cylinder;fillColor=#DF5327;strokeColor=none;shadow=0;align=center;labelPosition=center;spacingLeft=10;fontStyle=1;fontColor=#000000;fontSize=30;" parent="1" vertex="1">
          <mxGeometry x="750.81" y="536.42" width="188.37" height="53.58" as="geometry" />
        </mxCell>
        <mxCell id="vUYO0B9p0C9WrzdIXWTz-18" value="&lt;font color=&quot;#000000&quot; size=&quot;1&quot; style=&quot;&quot;&gt;&lt;b style=&quot;font-size: 30px; background-color: rgb(65, 138, 179);&quot;&gt;&amp;nbsp;Persona&amp;nbsp;&lt;/b&gt;&lt;/font&gt;&lt;br&gt;&lt;font style=&quot;font-size: 22px;&quot; color=&quot;#000000&quot;&gt;You work for the City of Munich and are responsible for the easy language translations of homepage texts.&lt;/font&gt;" style="rounded=0;whiteSpace=wrap;shadow=0;strokeColor=none;strokeWidth=6;fillColor=none;fontSize=20;align=left;html=1;" parent="1" vertex="1">
          <mxGeometry x="90" y="52" width="352.09" height="94.19" as="geometry" />
        </mxCell>
        <mxCell id="vUYO0B9p0C9WrzdIXWTz-19" value="&lt;b style=&quot;&quot;&gt;&lt;font color=&quot;#000000&quot; style=&quot;font-size: 30px; background-color: rgb(166, 183, 39);&quot;&gt;&amp;nbsp;Context&amp;nbsp;&lt;/font&gt;&lt;/b&gt;&lt;br&gt;&lt;font style=&quot;font-size: 22px;&quot; color=&quot;#000000&quot;&gt;The translation will be used to make the base texts&#39; information accessible for people with disabilities.&lt;/font&gt;" style="rounded=0;whiteSpace=wrap;shadow=0;strokeColor=none;strokeWidth=6;fillColor=none;fontSize=20;align=left;html=1;" parent="1" vertex="1">
          <mxGeometry x="90" y="212" width="352.09" height="94.19" as="geometry" />
        </mxCell>
        <mxCell id="vUYO0B9p0C9WrzdIXWTz-20" value="&lt;font color=&quot;#000000&quot; size=&quot;1&quot; style=&quot;&quot;&gt;&lt;b style=&quot;font-size: 30px; background-color: rgb(246, 146, 0);&quot;&gt;&amp;nbsp;Examples&amp;nbsp;&lt;/b&gt;&lt;/font&gt;&lt;br&gt;&lt;font style=&quot;font-size: 22px;&quot; color=&quot;#000000&quot;&gt;Composites like &quot;Personalausweis&quot; must be split into &quot;Personal-Ausweis&quot;.&lt;/font&gt;" style="rounded=0;whiteSpace=wrap;shadow=0;strokeColor=none;strokeWidth=6;fillColor=none;fontSize=20;align=left;html=1;" parent="1" vertex="1">
          <mxGeometry x="90" y="372" width="352.09" height="94.19" as="geometry" />
        </mxCell>
        <mxCell id="vUYO0B9p0C9WrzdIXWTz-21" value="&lt;b&gt;&lt;font color=&quot;#000000&quot; style=&quot;font-size: 30px; background-color: rgb(131, 131, 131);&quot;&gt;&amp;nbsp;Precision&amp;nbsp;&lt;/font&gt;&lt;br&gt;&lt;/b&gt;&lt;font style=&quot;font-size: 22px;&quot; color=&quot;#000000&quot;&gt;When examples are necessary to explain a term, give exactly three examples listed as bullet points.&lt;/font&gt;" style="rounded=0;whiteSpace=wrap;shadow=0;strokeColor=none;strokeWidth=6;fillColor=none;fontSize=20;align=left;html=1;" parent="1" vertex="1">
          <mxGeometry x="90" y="532" width="352.09" height="94.19" as="geometry" />
        </mxCell>
        <mxCell id="vUYO0B9p0C9WrzdIXWTz-22" value="&lt;font style=&quot;&quot; color=&quot;#000000&quot;&gt;&lt;font size=&quot;1&quot; style=&quot;&quot;&gt;&lt;b style=&quot;font-size: 30px; background-color: rgb(254, 195, 6);&quot;&gt;&amp;nbsp;Boundaries&amp;nbsp;&lt;/b&gt;&lt;/font&gt;&lt;br&gt;&lt;/font&gt;&lt;font style=&quot;font-size: 22px;&quot; color=&quot;#000000&quot;&gt;Additional information not given in the base text must not be added in translation unless it is absolutely crucial to the understanding.&lt;/font&gt;" style="rounded=0;whiteSpace=wrap;shadow=0;strokeColor=none;strokeWidth=6;fillColor=none;fontSize=20;align=left;html=1;" parent="1" vertex="1">
          <mxGeometry x="90" y="692.3" width="352.09" height="94.19" as="geometry" />
        </mxCell>
        <mxCell id="2TWmsKMEbgwdtRlDrWng-4" value="Prompt" style="shape=partialRectangle;whiteSpace=wrap;html=1;bottom=1;right=1;left=1;top=0;fillColor=none;routingCenterX=-0.5;direction=north;fontSize=48;fontStyle=1;fontColor=#000000;labelPosition=right;verticalLabelPosition=middle;align=left;verticalAlign=middle;strokeColor=#000000;spacingLeft=10;strokeWidth=2;" parent="1" vertex="1">
          <mxGeometry x="970" y="270" width="10" height="330" as="geometry" />
        </mxCell>
      </root>
    </mxGraphModel>
  </diagram>
</mxfile>
